Coordinates
version=1
nRows=11
nColumns=40
inDegrees=yes

Units are S.I. units (second, meters, Newtons, ...)
Angles are in degrees.

endheader
time	pelvis_tilt	pelvis_list	pelvis_rotation	pelvis_tx	pelvis_ty	pelvis_tz	hip_flexion_r	hip_adduction_r	hip_rotation_r	knee_angle_r	knee_angle_r_beta	ankle_angle_r	subtalar_angle_r	mtp_angle_r	hip_flexion_l	hip_adduction_l	hip_rotation_l	knee_angle_l	knee_angle_l_beta	ankle_angle_l	subtalar_angle_l	mtp_angle_l	lumbar_extension	lumbar_bending	lumbar_rotation	arm_flex_r	arm_add_r	arm_rot_r	elbow_flex_r	pro_sup_r	wrist_flex_r	wrist_dev_r	arm_flex_l	arm_add_l	arm_rot_l	elbow_flex_l	pro_sup_l	wrist_flex_l	wrist_dev_l
     33.65750000	     -4.10718692	     -6.09332179	      2.77596856	      0.79915752	      0.92022985	      0.45017346	      1.75669786	      1.03321882	    -13.35078031	     25.97653954	     25.97653954	     16.75062444	     -5.28349860	     -4.26106125	     27.69311412	     -7.18952579	     -0.26580020	     27.86821780	     27.86821780	      7.37125871	    -15.62792482	      4.74386947	     -7.71535423	      3.18254386	      3.77416214	     24.24955629	    -15.03069764	     12.55282664	     91.73464506	     44.08963603	      0.00000000	      0.00000000	     -3.95357045	     -9.93343272	     -3.55187648	     34.83815241	     45.39191684	      0.00000000	      0.00000000
     33.67028571	     -4.11354213	     -6.00091392	      2.61901625	      0.79970800	      0.92142857	      0.44758388	      2.66123008	      0.48164670	    -12.98083950	     28.24100701	     28.24100701	     14.42320024	     -7.30523188	     -8.56784320	     27.03148054	     -7.05078643	     -0.63328256	     27.71551653	     27.71551653	      8.06499542	    -15.29988751	      4.86410407	     -7.66612284	      3.07773917	      3.53319977	     23.47173056	    -15.03267605	     13.46635829	     89.47153995	     44.19394199	      0.00000000	      0.00000000	     -2.63302419	     -9.96275705	     -4.39093942	     34.01396715	     45.54799462	      0.00000000	      0.00000000
     33.68307143	     -4.14556130	     -5.82365034	      2.49341707	      0.80018532	      0.92257997	      0.44481784	      3.88251680	     -0.32517406	    -12.93119162	     31.17884507	     31.17884507	     13.30127500	     -8.28418566	     -9.35412008	     26.28234186	     -6.80905596	     -1.09063129	     27.33439919	     27.33439919	      8.49616567	    -14.95243557	      4.64033491	     -7.70151320	      2.92760944	      3.47790312	     22.07849236	    -15.21924633	     13.78392348	     88.46756790	     44.22161128	      0.00000000	      0.00000000	     -1.68753526	    -10.19407954	     -4.58905792	     34.61461751	     45.59260281	      0.00000000	      0.00000000
     33.69585714	     -4.13185417	     -5.61400516	      2.35640092	      0.80053020	      0.92361809	      0.44209865	      5.19355873	     -1.15377708	    -12.77112059	     34.30019176	     34.30019176	     11.95467566	     -9.53489117	    -10.00170781	     25.53608571	     -6.54187919	     -1.56406109	     27.04134886	     27.04134886	      8.88666685	    -14.61441728	      4.37840437	     -7.77813381	      2.74583323	      3.42825633	     20.71936755	    -15.38005685	     14.03397315	     87.13578470	     44.25892999	      0.00000000	      0.00000000	     -0.66256140	    -10.44611831	     -4.72605828	     35.20567174	     45.62885310	      0.00000000	      0.00000000
     33.70864286	     -4.09030082	     -5.46550140	      2.28401078	      0.80082530	      0.92449157	      0.43933589	      6.55514733	     -1.89765666	    -12.61671224	     37.49057371	     37.49057371	     10.45226727	    -10.91951660	    -10.48904546	     24.78571278	     -6.29679982	     -1.89062235	     26.75405268	     26.75405268	      9.33884490	    -14.26190486	      4.06918152	     -7.86691210	      2.67949630	      3.31981322	     19.33499673	    -15.49630313	     14.22214997	     85.63272827	     44.30216119	      0.00000000	      0.00000000	      0.36620066	    -10.70758011	     -4.83207489	     35.81953885	     45.66046452	      0.00000000	      0.00000000
     33.72142857	     -4.21792093	     -5.34297370	      2.12536630	      0.80086829	      0.92505390	      0.43684747	      8.15243098	     -2.51920461	    -12.27661325	     40.49929371	     40.49929371	      7.63998467	    -13.54185915	    -13.37264022	     24.21226281	     -6.13707034	     -2.38813855	     26.39596501	     26.39596501	      9.37553545	    -13.94345157	      3.05616253	     -7.69812690	      2.63788893	      2.91257483	     18.68485508	    -14.86042895	     14.01971092	     81.60801945	     44.49606763	      0.00000000	      0.00000000	      0.71078348	    -11.14737973	     -5.08655329	     37.34453368	     45.72864593	      0.00000000	      0.00000000
     33.73421429	     -4.18771124	     -5.21326871	      1.97033927	      0.80089432	      0.92562055	      0.43429156	      9.72565888	     -3.13707568	    -11.86552606	     43.78654173	     43.78654173	      6.01954847	    -15.15416017	    -12.89273599	     23.54260572	     -5.95398583	     -2.82127792	     26.20521041	     26.20521041	      9.74527589	    -13.62617767	      2.69504376	     -7.79732561	      2.60777446	      2.88699326	     17.29158652	    -15.01591308	     13.95314764	     79.47450478	     44.57750177	      0.00000000	      0.00000000	      1.74452025	    -11.41208307	     -5.15694839	     38.16845692	     45.76209049	      0.00000000	      0.00000000
     33.74700000	     -4.20277736	     -4.97203097	      1.80873684	      0.80073578	      0.92601293	      0.43175682	     11.42312362	     -3.93907079	    -11.61907488	     47.08970758	     47.08970758	      4.49929794	    -16.33878930	    -12.17711955	     22.90075871	     -5.64118865	     -3.26703599	     25.95038928	     25.95038928	     10.09498422	    -13.31250911	      2.41937087	     -7.87304166	      2.49595582	      2.82924741	     15.92092770	    -15.13997366	     13.91025632	     77.61061287	     44.64155972	      0.00000000	      0.00000000	      2.73468976	    -11.73176711	     -5.21305107	     38.92952745	     45.78909370	      0.00000000	      0.00000000
     33.75978571	     -4.14313303	     -4.72920745	      1.68019169	      0.80048221	      0.92638815	      0.42922046	     13.02648251	     -4.72008093	    -11.41264808	     50.19817348	     50.19817348	      3.08979019	    -17.34102563	    -11.21620236	     22.25084680	     -5.31297995	     -3.66641276	     25.80895456	     25.80895456	     10.45777335	    -13.05922163	      2.13970904	     -8.04963690	      2.39680663	      2.73744259	     14.54343933	    -15.25196513	     13.83891817	     75.73095320	     44.70465927	      0.00000000	      0.00000000	      3.81083739	    -12.11215369	     -5.27323848	     39.71669798	     45.81646380	      0.00000000	      0.00000000
     33.77257143	     -4.16916763	     -4.68762731	      1.48535659	      0.80011795	      0.92668666	      0.42719914	     14.92690168	     -5.06525054	    -10.94015410	     53.49735616	     53.49735616	      3.71387912	    -17.34005998	     -4.54809975	     21.66803909	     -5.24973679	     -4.06756217	     25.57037595	     25.57037595	     10.68812729	    -12.74129608	      1.33895935	     -8.03577886	      2.49278412	      2.26864429	     14.15639343	    -13.97060095	     12.12554963	     70.18888167	     44.97061500	      0.00000000	      0.00000000	      4.07581162	    -12.73167976	     -4.85067465	     41.64594501	     45.81359737	      0.00000000	      0.00000000
     33.78535714	     -4.11431822	     -4.46822218	      1.32753841	      0.79967249	      0.92702871	      0.42498191	     16.47516277	     -5.71705458	    -10.75768677	     56.02802108	     56.02802108	      2.55173804	    -18.04166309	     -3.94234656	     21.03583505	     -4.94771879	     -4.40025464	     25.41193170	     25.41193170	     11.03269313	    -12.53696460	      1.15382622	     -8.26938149	      2.42095626	      2.18880432	     12.65622295	    -14.33750525	     12.27330537	     68.88492334	     45.00423734	      0.00000000	      0.00000000	      5.21818636	    -13.15776654	     -4.98519687	     42.35711093	     45.84940496	      0.00000000	      0.00000000
